<svg xmlns="http://www.w3.org/2000/svg" viewBox="0 0 406.6 76.43"><defs><style>.cls-1{fill:#231f20;}.cls-1,.cls-2{fill-rule:evenodd;}.cls-2{fill:#ec2227;}</style></defs><title>Incredible India</title><g id="Layer_2" data-name="Layer 2"><g id="Layer_1-2" data-name="Layer 1"><path class="cls-1" d="M294.92,53.47h-4.21v1.78h14.4V53.47H301V39.14c0-5.79,4-13,9.26-13,3.07,0,4.85.84,4.85,6.47V53.47h-4v1.78h14.2V53.47h-4.16V31.65c0-7.1-6.4-7.71-9.18-7.71-5.63,0-8.64,3.31-10.79,8.17H301V23.94a27.49,27.49,0,0,1-4.3.61,38.81,38.81,0,0,1-4.34.16h-1.6v1.77h4.21v27"/><path class="cls-1" d="M347.65,33.58a32.81,32.81,0,0,1,.52,6.78c0,8-1,9.57-3.93,12.19a9.6,9.6,0,0,1-5.31,2.07c-6.34,0-7.8-3.93-7.8-15.8,0-5.47.23-13.35,7.4-13.35s8.8,7,9.12,8.11m6.23,19.89v-52a46.93,46.93,0,0,1-8.64.69h-2.52V3.88h5.16V29.8h-.17a10.35,10.35,0,0,0-9.24-5.86c-9.18,0-14.37,7.4-14.37,16,0,8.79,5.79,16.27,13.6,16.27a11,11,0,0,0,10.09-5.56h.15v5.18a63.47,63.47,0,0,1,10.18-.62V53.47Z"/><path class="cls-1" d="M375.19,55.25V53.47h-4.56V23.94a36.11,36.11,0,0,1-8.64.77h-2.52v1.78h5.16v27h-5.16v1.78h15.72"/><path class="cls-1" d="M405.28,49.93c-.4,1.31-1.15,3.46-2.7,3.46S401,52.16,401,49.85V31.49c0-3.08,0-7.55-10.47-7.55-9.18,0-12.36,4.63-12.36,7.4,0,2.16,1.17,3.7,3.27,3.7a3,3,0,0,0,3.15-3.23c0-2.56-2.32-2.94-2.32-3.56,0-2.23,5.48-2.77,7.17-2.77,2.7,0,5.56,1.08,5.56,4.7v7.33c-11.81,0-19.13,4-19.36,11.19,0,5.7,4.16,7.55,9,7.55A13.1,13.1,0,0,0,395,51.54c.55,2.86,2.18,4.71,5,4.71a6.56,6.56,0,0,0,6.57-6.32h-1.32M395,46.3c0,3.24-1.09,4.09-1.69,4.71a8.1,8.1,0,0,1-6,2.23c-3.52,0-5.9-2.31-5.9-6.09,0-7.09,8.54-7.94,13.56-8Z"/><polygon class="cls-1" points="20.74 53.47 14.11 53.47 14.11 5.51 20.74 5.51 20.74 3.73 0 3.73 0 5.51 6.63 5.51 6.63 53.47 0 53.47 0 55.25 20.74 55.25 20.74 53.47"/><path class="cls-1" d="M26.51,53.47H22.29v1.78h14.4V53.47H32.53V39.14c0-5.79,4-13,9.27-13,3.07,0,4.84.84,4.84,6.47V53.47h-4v1.78h14.2V53.47H52.67V31.65c0-7.1-6.4-7.71-9.18-7.71-5.65,0-8.64,3.31-10.82,8.17h-.14V23.94a27.87,27.87,0,0,1-4.33.61,37.92,37.92,0,0,1-4.3.16H22.29v1.77h4.22v27"/><path class="cls-1" d="M82.53,45.69c-1.86,5.55-6.17,9.18-10.64,8.94-4-.23-6.4-1.85-7.58-4.4A26.15,26.15,0,0,1,62.71,41c0-10.1,1.92-15.5,9.32-15.5,1.69,0,6.57.85,6.57,2.93,0,.84-2.47,1.23-2.47,4.23a3.42,3.42,0,0,0,3.62,3.63c2.18,0,3.47-2,3.47-4.08,0-5.94-7.09-8.25-12.11-8.25-4.39,0-15.43,3.31-15.43,17,0,5.32,3.64,15.27,15.58,15.27,8-.31,11.13-5.09,12.88-10.56H82.53"/><path class="cls-1" d="M94.58,23.94a36.34,36.34,0,0,1-8.64.77H83.53v1.77h5.25v27H83.53v1.78h17.22V53.47H94.81V38.82a20.12,20.12,0,0,1,1.92-8.33,8.94,8.94,0,0,1,4.39-4.55c.23,0,.69,0,.69.47a15.93,15.93,0,0,0-.29,1.61,3.36,3.36,0,0,0,3,3.08c1.64,0,3.65-.92,3.65-2.85,0-2.93-2.1-4.31-4.71-4.31-4.24,0-7.31,3.77-8.72,7.25h-.14V23.94"/><path class="cls-1" d="M134.28,45.69c-1.09,5.08-6.25,8.93-10.64,8.93-8.41,0-9.41-6.16-9.41-13.79V37.66h21.83c-.09-8.41-6-13.72-13.88-13.72C113,23.94,107,32.26,107,41.37c0,8.56,7.57,14.88,15.43,14.88,6.77,0,12-3.39,13.57-10.56h-1.69m-20-10.27a18.16,18.16,0,0,1,.77-5.08c.14-.54,2.24-4.87,6.86-4.87,3.84,0,7.08,1.78,7.08,7.33v2.62Z"/><path class="cls-1" d="M161.59,33.58a32.8,32.8,0,0,1,.55,6.78c0,8-1,9.57-3.93,12.19a9.7,9.7,0,0,1-5.31,2.07c-6.34,0-7.8-3.93-7.8-15.8,0-5.47.23-13.35,7.4-13.35s8.77,7,9.09,8.11m6.25,19.89v-52a47,47,0,0,1-8.63.69h-2.55V3.88h5.16V29.8h-.14a10.42,10.42,0,0,0-9.27-5.86c-9.18,0-14.34,7.4-14.34,16,0,8.79,5.79,16.27,13.59,16.27a11,11,0,0,0,10.07-5.56h.18v5.18a63.05,63.05,0,0,1,10.18-.62V53.47Z"/><path class="cls-1" d="M189.16,55.25V53.47H184.6V23.94a36.39,36.39,0,0,1-8.64.77h-2.55v1.78h5.16v27h-5.16v1.78h15.75"/><path class="cls-1" d="M200.72,1.42a47.07,47.07,0,0,1-8.64.69h-1.77V3.88h4.38V53.39h-4.38v1.86c3.41-.08,6.71.38,10.09.62V50.54h.18c1.83,3.08,5.24,5.71,9.09,5.71,8.26,0,14.8-6.63,14.8-16.19,0-7-4.16-16.12-14.89-16.12a10.74,10.74,0,0,0-8.72,5.39h-.14V1.42M200.86,33c.17-2.32,3.73-7.57,8.81-7.57,7.49,0,7.8,8.5,7.8,14.28,0,6.17-.08,14.87-7.8,14.87-2.32,0-9.18-1.31-9.18-11,0-1.94.17-8.49.37-10.57"/><path class="cls-1" d="M241,55.25V53.47h-5.93v-52a46.08,46.08,0,0,1-8.64.69h-3.3V3.89H229V53.47h-5.91v1.78H241"/><path class="cls-1" d="M266.61,45.69c-1.09,5.08-6.25,8.93-10.64,8.93-8.41,0-9.41-6.16-9.41-13.79V37.66h21.83c-.06-8.41-6-13.72-13.88-13.72-9.18,0-15.21,8.32-15.21,17.43,0,8.56,7.58,14.88,15.44,14.88,6.79,0,12-3.39,13.59-10.56h-1.72m-20-10.27a18.16,18.16,0,0,1,.77-5.08c.14-.54,2.21-4.87,6.86-4.87,3.84,0,7.11,1.78,7.11,7.33v2.62Z"/><polygon class="cls-1" points="20.74 53.47 14.11 53.47 14.11 5.51 20.74 5.51 20.74 3.73 0 3.73 0 5.51 6.63 5.51 6.63 53.47 0 53.47 0 55.25 20.74 55.25 20.74 53.47"/><path class="cls-1" d="M26.51,53.47H22.29v1.78h14.4V53.47H32.53V39.14c0-5.79,4-13,9.27-13,3.07,0,4.84.84,4.84,6.47V53.47h-4v1.78h14.2V53.47H52.67V31.65c0-7.1-6.4-7.71-9.18-7.71-5.65,0-8.64,3.31-10.82,8.17h-.14V23.94a27.87,27.87,0,0,1-4.33.61,37.92,37.92,0,0,1-4.3.16H22.29v1.77h4.22v27"/><path class="cls-1" d="M82.53,45.69c-1.86,5.55-6.17,9.18-10.64,8.94-4-.23-6.4-1.85-7.58-4.4A26.15,26.15,0,0,1,62.71,41c0-10.1,1.92-15.5,9.32-15.5,1.69,0,6.57.85,6.57,2.93,0,.84-2.47,1.23-2.47,4.23a3.42,3.42,0,0,0,3.62,3.63c2.18,0,3.47-2,3.47-4.08,0-5.94-7.09-8.25-12.11-8.25-4.39,0-15.43,3.31-15.43,17,0,5.32,3.64,15.27,15.58,15.27,8-.31,11.13-5.09,12.88-10.56H82.53"/><path class="cls-1" d="M94.58,23.94a36.34,36.34,0,0,1-8.64.77H83.53v1.77h5.25v27H83.53v1.78h17.22V53.47H94.81V38.82a20.12,20.12,0,0,1,1.92-8.33,8.94,8.94,0,0,1,4.39-4.55c.23,0,.69,0,.69.47a15.93,15.93,0,0,0-.29,1.61,3.36,3.36,0,0,0,3,3.08c1.64,0,3.65-.92,3.65-2.85,0-2.93-2.1-4.31-4.71-4.31-4.24,0-7.31,3.77-8.72,7.25h-.14V23.94"/><path class="cls-1" d="M134.28,45.69c-1.09,5.08-6.25,8.93-10.64,8.93-8.41,0-9.41-6.16-9.41-13.79V37.66h21.83c-.09-8.41-6-13.72-13.88-13.72C113,23.94,107,32.26,107,41.37c0,8.56,7.57,14.88,15.43,14.88,6.77,0,12-3.39,13.57-10.56h-1.69m-20-10.27a18.16,18.16,0,0,1,.77-5.08c.14-.54,2.24-4.87,6.86-4.87,3.84,0,7.08,1.78,7.08,7.33v2.62Z"/><path class="cls-1" d="M161.59,33.58a32.8,32.8,0,0,1,.55,6.78c0,8-1,9.57-3.93,12.19a9.7,9.7,0,0,1-5.31,2.07c-6.34,0-7.8-3.93-7.8-15.8,0-5.47.23-13.35,7.4-13.35s8.77,7,9.09,8.11m6.25,19.89v-52a47,47,0,0,1-8.63.69h-2.55V3.88h5.16V29.8h-.14a10.42,10.42,0,0,0-9.27-5.86c-9.18,0-14.34,7.4-14.34,16,0,8.79,5.79,16.27,13.59,16.27a11,11,0,0,0,10.07-5.56h.18v5.18a63.05,63.05,0,0,1,10.18-.62V53.47Z"/><path class="cls-1" d="M189.16,55.25V53.47H184.6V23.94a36.39,36.39,0,0,1-8.64.77h-2.55v1.78h5.16v27h-5.16v1.78h15.75"/><path class="cls-1" d="M200.72,1.42a47.07,47.07,0,0,1-8.64.69h-1.77V3.88h4.38V53.39h-4.38v1.86c3.41-.08,6.71.38,10.09.62V50.54h.18c1.83,3.08,5.24,5.71,9.09,5.71,8.26,0,14.8-6.63,14.8-16.19,0-7-4.16-16.12-14.89-16.12a10.74,10.74,0,0,0-8.72,5.39h-.14V1.42M200.86,33c.17-2.32,3.73-7.57,8.81-7.57,7.49,0,7.8,8.5,7.8,14.28,0,6.17-.08,14.87-7.8,14.87-2.32,0-9.18-1.31-9.18-11,0-1.94.17-8.49.37-10.57"/><path class="cls-1" d="M241,55.25V53.47h-5.93v-52a46.08,46.08,0,0,1-8.64.69h-3.3V3.89H229V53.47h-5.91v1.78H241"/><path class="cls-1" d="M266.61,45.69c-1.09,5.08-6.25,8.93-10.64,8.93-8.41,0-9.41-6.16-9.41-13.79V37.66h21.83c-.06-8.41-6-13.72-13.88-13.72-9.18,0-15.21,8.32-15.21,17.43,0,8.56,7.58,14.88,15.44,14.88,6.79,0,12-3.39,13.59-10.56h-1.72m-20-10.27a18.16,18.16,0,0,1,.77-5.08c.14-.54,2.21-4.87,6.86-4.87,3.84,0,7.11,1.78,7.11,7.33v2.62Z"/><path class="cls-2" d="M283.94,76.43c4.1,0,7.8-2.94,7.8-7.4,0-4.1-4.1-7.16-7.8-7.16A7.41,7.41,0,0,0,276.68,69a7.06,7.06,0,0,0,7.26,7.4"/><path class="cls-1" d="M285.29,55.3c.57-24,4.47-44.51,4.47-47.49C289.76,3.91,288,0,284.2,0s-5.57,3.91-5.57,7.81c0,3,3.9,23.52,4.5,47.49h2.16"/></g></g></svg>